<svg width="40" height="40" viewBox="0 0 40 40" fill="none" xmlns="http://www.w3.org/2000/svg">
<path d="M25.87 10.408L13.87 4.408L4 8.638V33.934L14.13 29.594L26.13 35.594L36 31.36V6.066L25.87 10.406V10.408ZM3.95901e-07 6L14 0L26 6L38.606 0.598C38.7582 0.532767 38.9242 0.506338 39.0891 0.521085C39.254 0.535831 39.4126 0.591292 39.5508 0.68249C39.689 0.773687 39.8024 0.897768 39.8808 1.0436C39.9592 1.18942 40.0001 1.35243 40 1.518V34L26 40L14 34L1.394 39.402C1.24183 39.4672 1.07584 39.4937 0.910932 39.4789C0.746024 39.4642 0.587359 39.4087 0.449174 39.3175C0.31099 39.2263 0.197612 39.1022 0.119214 38.9564C0.0408164 38.8106 -0.000146913 38.6476 3.95901e-07 38.482V6ZM8 18H12V22H8V18ZM16 18H20V22H16V18ZM27.996 17.874L30.472 15.4L32.592 17.52L30.118 19.996L32.592 22.472L30.472 24.592L27.996 22.118L25.522 24.592L23.4 22.472L25.874 19.996L23.4 17.522L25.52 15.4L27.996 17.874Z" fill="white"/>
</svg>
