<svg width="40" height="40" viewBox="0 0 40 40" fill="none" xmlns="http://www.w3.org/2000/svg">
<path opacity="0.2" d="M16.1406 25.3125L13.7656 17.9688L20 13.4375L26.2344 17.9688L23.8594 25.3125H16.1406ZM20 10L25.4688 6.03129C21.9526 4.65624 18.0474 4.65624 14.5313 6.03129L20 10ZM8.40626 10.4844C7.21813 11.9277 6.31177 13.5814 5.73438 15.3594C5.15957 17.1439 4.91598 19.0185 5.01563 20.8907L10.4844 16.9063L8.40626 10.4844ZM7.35938 28.0938C8.37443 29.6677 9.6724 31.0398 11.1875 32.1407C12.7016 33.2395 14.4081 34.045 16.2188 34.5157L14.125 28.0938H7.35938ZM25.875 28.0938L23.7813 34.5157C25.5919 34.045 27.2984 33.2395 28.8125 32.1407C30.3276 31.0398 31.6256 29.6677 32.6406 28.0938H25.875ZM34.2656 15.3594C33.6882 13.5814 32.7819 11.9277 31.5938 10.4844L29.5156 16.9063L34.9844 20.8907C35.084 19.0185 34.8405 17.1439 34.2656 15.3594Z" fill="white"/>
<path d="M36.2188 21.0625C36.2266 21.0003 36.2266 20.9373 36.2188 20.875C36.2344 20.5781 36.25 20.2969 36.25 20C36.2555 16.2973 34.9865 12.7056 32.6563 9.82813C32.602 9.72575 32.5276 9.6354 32.4375 9.56251C30.7148 7.50329 28.5084 5.90345 26.0156 4.90626L25.8438 4.84376C22.0844 3.38525 17.9156 3.38525 14.1563 4.84376L13.9844 4.90626C11.4917 5.90345 9.2852 7.50329 7.56252 9.56251C7.47244 9.6354 7.39803 9.72575 7.34377 9.82813C5.01353 12.7056 3.74456 16.2973 3.75002 20C3.75002 20.2969 3.76564 20.5781 3.78127 20.875C3.77342 20.9373 3.77342 21.0003 3.78127 21.0625C3.96147 23.7473 4.80431 26.3456 6.23439 28.625C6.28246 28.7192 6.34005 28.8082 6.40627 28.8906C8.60247 32.2426 11.9567 34.668 15.8281 35.7031H15.875C18.5794 36.4114 21.4206 36.4114 24.125 35.7031H24.1719C28.0433 34.668 31.3976 32.2426 33.5938 28.8906C33.66 28.8082 33.7176 28.7192 33.7656 28.625C35.1957 26.3456 36.0386 23.7473 36.2188 21.0625ZM6.32814 21.4844L10.7031 18.2969L12.7656 18.9688L14.75 25.0938L13.4844 26.8438H8.07814C7.12326 25.2008 6.52686 23.3743 6.32814 21.4844ZM8.00002 13.2969L9.01564 16.4375L6.34377 18.375C6.55701 16.59 7.11981 14.8644 8.00002 13.2969ZM17.0469 24.0625L15.2344 18.4531L20 14.9844L24.7656 18.4531L22.9531 24.0625H17.0469ZM26.5156 26.8438L25.25 25.0938L27.2344 18.9688L29.2969 18.2969L33.6719 21.4844C33.4732 23.3743 32.8768 25.2008 31.9219 26.8438H26.5156ZM33.6563 18.375L30.9844 16.4375L32 13.2969C32.8802 14.8644 33.443 16.59 33.6563 18.375ZM30.1875 10.7813L28.5156 15.9219L26.4531 16.5938L21.25 12.7969V10.6406L25.625 7.45313C27.3621 8.23089 28.9164 9.36473 30.1875 10.7813ZM22.6719 6.51563L20 8.45313L17.3281 6.51563C19.0918 6.16166 20.9082 6.16166 22.6719 6.51563ZM14.375 7.45313L18.75 10.6406V12.7969L13.5469 16.5938L11.4844 15.9219L9.81252 10.7813C11.0836 9.36473 12.638 8.23089 14.375 7.45313ZM9.92189 29.3438H13.2188L14.2344 32.4844C12.6081 31.725 11.1438 30.6586 9.92189 29.3438ZM17.1875 33.4531L15.5156 28.3125L16.7813 26.5625H23.2188L24.4844 28.3125L22.8125 33.4531C20.9584 33.849 19.0416 33.849 17.1875 33.4531ZM25.7656 32.4844L26.7813 29.3438H30.0781C28.8563 30.6586 27.392 31.725 25.7656 32.4844Z" fill="white"/>
</svg>
